<?xml version="1.0" standalone="no"?>
<!DOCTYPE svg PUBLIC "-//W3C//DTD SVG 20010904//EN"
 "http://www.w3.org/TR/2001/REC-SVG-20010904/DTD/svg10.dtd">
<svg version="1.0" xmlns="http://www.w3.org/2000/svg"
 width="260.000000pt" height="260.000000pt" viewBox="0 0 260.000000 260.000000"
 preserveAspectRatio="xMidYMid meet">
<metadata>
Created by potrace 1.14, written by Peter Selinger 2001-2017
</metadata>
<g transform="translate(0.000000,260.000000) scale(0.100000,-0.100000)"
fill="#000000" stroke="none">
<path d="M1095 2275 c2 -41 -5 -48 -54 -49 -34 -1 -36 -3 -36 -36 0 -50 -14
-66 -55 -66 -33 1 -35 -1 -32 -30 4 -36 -16 -57 -56 -58 -24 -1 -27 -5 -30
-43 l-3 -43 -50 0 -49 0 0 -40 c0 -41 -1 -42 -55 -44 -27 -1 -30 -4 -32 -36 0
-19 -2 -40 -2 -46 -1 -5 -20 -10 -43 -10 -43 1 -43 1 -43 -36 -1 -46 -8 -53
-49 -50 -37 4 -43 -5 -41 -55 2 -26 -1 -32 -19 -31 -61 2 -65 0 -68 -44 -3
-40 -5 -43 -33 -44 -53 -3 -56 -4 -54 -16 1 -7 1 -27 0 -44 -1 -30 -3 -31 -43
-30 l-42 1 -1 -45 -1 -45 -42 3 c-35 3 -42 0 -43 -15 -5 -85 -8 -90 -58 -87
l-41 1 0 -123 0 -124 38 -1 c20 -1 43 -1 50 0 8 1 13 -6 12 -16 -1 -10 -2 -31
-1 -46 1 -25 5 -28 29 -27 56 4 60 2 57 -32 -5 -52 -1 -55 88 -54 l82 1 5 -45
5 -45 83 2 c90 3 86 6 85 -64 0 -26 -1 -25 105 -24 l72 1 0 -44 0 -45 83 1
c45 1 87 -1 93 -5 6 -3 11 -20 12 -37 0 -16 3 -34 6 -38 3 -5 41 -8 86 -7 88
2 81 8 84 -72 l0 -32 78 3 c43 1 83 -1 89 -5 6 -3 9 -19 7 -35 l-3 -29 83 -3
82 -3 0 36 c0 36 -1 36 60 39 23 1 25 5 25 51 l0 50 40 0 c47 -1 53 5 48 51
-3 33 -3 34 34 35 21 1 42 1 46 0 5 -1 7 18 5 41 -3 43 -2 43 32 45 19 0 40 1
46 2 6 1 10 11 10 24 -1 12 2 31 8 42 5 11 10 36 10 55 1 33 3 35 36 38 19 1
42 6 50 9 8 3 19 5 24 4 6 -1 19 0 31 3 17 4 21 12 19 40 -4 42 5 49 60 50 41
1 41 1 41 41 0 40 0 40 43 43 44 3 46 7 44 63 -2 22 2 25 31 24 50 -2 57 4 57
46 0 21 5 40 10 40 6 1 25 2 42 3 31 1 33 3 33 41 1 40 1 40 45 45 43 5 45 7
46 38 1 17 2 36 3 41 0 5 17 9 37 9 44 0 49 5 46 46 -4 40 19 62 59 58 l29 -4
0 81 c0 88 1 87 -68 81 -12 -1 -22 2 -21 7 1 4 1 25 0 45 l-1 38 -85 -3 c-47
-1 -85 0 -86 3 -1 3 -2 23 -3 45 l-1 40 -70 1 c-108 2 -103 0 -103 38 0 19 -2
39 -5 43 -3 5 -42 9 -86 8 -87 -2 -83 -5 -83 58 l-1 27 -89 0 c-96 0 -100 2
-102 59 -1 25 -3 26 -66 27 -90 1 -107 8 -105 42 3 46 -1 49 -90 47 l-85 -1 0
51 0 51 -72 1 c-112 1 -105 -1 -104 41 l1 37 -81 3 -82 3 3 -36z"/>
</g>
</svg>
