<svg width="1920" height="1080" viewBox="0 0 1920 1080" xmlns="http://www.w3.org/2000/svg"><rect width="1920" height="1080" fill="#df6688"/><path d="M 0,1080 C 0,1080 0,360 0,360 C 99.92820512820512,339.3538461538461 199.85641025641024,318.7076923076923 296,358 C 392.14358974358976,397.2923076923077 484.5025641025642,496.52307692307704 605,476 C 725.4974358974358,455.47692307692296 874.1333333333332,315.19999999999993 1000,272 C 1125.8666666666668,228.80000000000007 1228.9641025641026,282.6769230769231 1311,295 C 1393.0358974358974,307.3230769230769 1454.0102564102565,278.09230769230766 1552,282 C 1649.9897435897435,285.90769230769234 1784.9948717948719,322.95384615384614 1920,360 C 1920,360 1920,1080 1920,1080 Z" fill="#3d1053" opacity="0.19999999999999998"/><path d="M 0,1080 C 0,1080 0,720 0,720 C 109.28717948717946,742.5769230769231 218.57435897435892,765.1538461538461 335,765 C 451.4256410256411,764.8461538461539 574.9897435897437,741.9615384615385 685,709 C 795.0102564102563,676.0384615384615 891.4666666666665,633.0000000000001 982,606 C 1072.5333333333335,578.9999999999999 1157.14358974359,568.0384615384615 1252,620 C 1346.85641025641,671.9615384615385 1451.9589743589743,786.8461538461539 1565,814 C 1678.0410256410257,841.1538461538461 1799.020512820513,780.5769230769231 1920,720 C 1920,720 1920,1080 1920,1080 Z" fill="#3d1053" opacity="0.39999999999999997"/></svg>